<svg width="54" height="52" viewBox="0 0 54 52" fill="none" xmlns="http://www.w3.org/2000/svg">
<path d="M2.96615 36.3911L18.3347 29.1664V35.9451L9.49251 39.6913C8.13444 40.3809 7.86871 40.8774 8.51005 42.0103C9.28205 42.9022 12.0189 42.7238 13.6329 42.0103L18.3347 39.6913V45.578C16.6505 46.0775 14.1709 46.2024 13.1417 46.2024C7.98606 46.2324 2.17216 43.8604 1.21175 42.7238C-0.823316 40.3156 -0.332034 37.9966 2.96615 36.3911Z" fill="white"/>
<path d="M20.0891 0V48.5214L28.6505 52V10.7925C28.7964 9.29936 29.0732 8.69872 30.2646 8.47341C31.1109 8.36434 32.2927 9.98119 32.2295 10.7925V29.1664C33.3676 30.0228 34.1422 30.2922 35.7383 30.4151C39.8565 30.0174 41.6886 28.6803 41.984 19.3551C42.0135 12.7809 40.7718 9.76495 35.7383 5.88679C29.9512 2.63953 26.4867 1.46088 20.0891 0Z" fill="white"/>
<path d="M30.2646 40.8508V34.1612C32.9537 33.1252 34.5503 32.6542 37.7734 32.2882C41.7033 31.8419 45.8437 31.9314 52.0893 35.2316C53.9841 36.2328 55.3175 40.048 49.7735 42.7238L30.2646 51.4648V44.8645L44.4401 38.6209C46.1357 37.8545 46.2648 36.8371 45.1419 36.3911C43.5981 35.6775 42.0542 35.7667 40.5804 36.3911L30.2646 40.8508Z" fill="white"/>
</svg>
